<?xml version="1.0" encoding="utf-8"?>
<!-- Generator: Adobe Illustrator 22.0.0, SVG Export Plug-In . SVG Version: 6.00 Build 0)  -->
<svg version="1.1" id="Слой_1" xmlns="http://www.w3.org/2000/svg" xmlns:xlink="http://www.w3.org/1999/xlink" x="0px" y="0px"
	 viewBox="0 0 165 171" style="enable-background:new 0 0 165 171;" xml:space="preserve">
<style type="text/css">
	.st0{fill:#FFB61B;}
</style>
<g>
	<path class="st0" d="M160.3,79.7c-2.8,0-5,2.2-5,5v4.5c0,2.8,2.2,5,5,5c2.8,0,5-2.2,5-5v-4.5C165.3,81.9,163.1,79.7,160.3,79.7z"/>
	<path class="st0" d="M160.3,98.5c-2.8,0-5,2.2-5,5V149c0,6.6-5.9,12-13.1,12h-119c-7.2,0-13.1-5.4-13.1-12V77.9
		c0-5.4,4-10,9.4-11.5l59.9,50.9c0.9,0.8,2.1,1.2,3.2,1.2c1.2,0,2.3-0.4,3.3-1.2l59.8-50.9c3.8,1,7,3.5,8.6,7
		c1.1,2.5,4.1,3.6,6.6,2.5c2.5-1.1,3.6-4.1,2.5-6.6c-2.7-5.9-7.8-10.2-14-12.1V20.1c0-11.1-9-20.1-20.1-20.1H36
		C24.9,0,15.9,9,15.9,20.1V57C6.7,59.9,0,68.2,0,77.9V149c0,12.1,10.4,22,23.2,22h119c12.8,0,23.2-9.9,23.2-22v-45.5
		C165.3,100.8,163.1,98.5,160.3,98.5z M25.9,20.1C25.9,14.5,30.4,10,36,10h93.4c5.6,0,10.1,4.5,10.1,10.1v38.5l-56.8,48.3L25.9,58.7
		V20.1z"/>
	<path class="st0" d="M41.6,39.9h82c2.8,0,5-2.2,5-5c0-2.8-2.2-5-5-5h-82c-2.8,0-5,2.2-5,5C36.6,37.6,38.9,39.9,41.6,39.9z"/>
	<path class="st0" d="M128.7,56.9c0-2.8-2.2-5-5-5h-82c-2.8,0-5,2.2-5,5c0,2.8,2.2,5,5,5h82C126.4,61.9,128.7,59.6,128.7,56.9z"/>
	<path class="st0" d="M60.8,113.4l-43.4,32.1c-2.2,1.6-2.7,4.8-1.1,7c1,1.3,2.5,2,4,2c1,0,2.1-0.3,3-1l43.4-32.1
		c2.2-1.6,2.7-4.8,1.1-7C66.2,112.2,63,111.7,60.8,113.4z"/>
	<path class="st0" d="M104.5,113.4c-2.2-1.6-5.4-1.2-7,1.1c-1.6,2.2-1.2,5.4,1.1,7l43.4,32.1c0.9,0.7,1.9,1,3,1c1.5,0,3.1-0.7,4-2
		c1.6-2.2,1.2-5.4-1.1-7L104.5,113.4z"/>
</g>
</svg>
