<?xml version="1.0" encoding="utf-8"?>
<!-- Generator: Adobe Illustrator 22.0.0, SVG Export Plug-In . SVG Version: 6.00 Build 0)  -->
<svg version="1.1" id="Слой_1" xmlns="http://www.w3.org/2000/svg" xmlns:xlink="http://www.w3.org/1999/xlink" x="0px" y="0px"
	 viewBox="0 0 225 171" style="enable-background:new 0 0 225 171;" xml:space="preserve">
<style type="text/css">
	.st0{fill:#FFB61B;}
</style>
<g>
	<path class="st0" d="M160.8,106.3l1.9,2.9c1.1,1.6,2.8,2.5,4.6,2.5c1,0,2.1-0.3,3-0.9c2.5-1.7,3.2-5.1,1.6-7.6l-1.9-2.9
		c-1.7-2.5-5.1-3.2-7.6-1.6C159.8,100.4,159.1,103.8,160.8,106.3z"/>
	<path class="st0" d="M180.4,115.2c-1.7-2.5-5.1-3.2-7.6-1.5c-2.5,1.7-3.2,5.1-1.5,7.6l9.1,13.6c0.7,1.1,1.1,2.4,1.1,3.7v14.6
		c0,3.7-3,6.7-6.7,6.7H49.2c-3.7,0-6.7-3-6.7-6.7v-14.6c0-1.3,0.4-2.6,1.1-3.7l29.2-43.5h16.6h45.3h16.6l2.2,3
		c1.8,2.4,5.3,3,7.7,1.2c2.4-1.8,3-5.3,1.2-7.7l-2.6-3.5V61.2c0-3-2.5-5.5-5.5-5.5h-19.6c-3,0-5.5,2.5-5.5,5.5v19.2H95V61.2
		c0-3-2.5-5.5-5.5-5.5H69.9c-3,0-5.5,2.5-5.5,5.5v23l-29.9,44.5c-2,2.9-3,6.3-3,9.9v14.6c0,9.8,7.9,17.7,17.7,17.7h125.5
		c9.8,0,17.7-7.9,17.7-17.7v-14.6c0-3.5-1-6.9-3-9.9L180.4,115.2z M140.3,66.7h8.5v13.7h-8.5V66.7z M75.4,66.7h8.5v13.7h-8.5V66.7z"
		/>
	<path class="st0" d="M222.8,59.1c-0.3-0.4-0.6-0.7-1-1c2.3-28-13.5-36.6-16.3-37.9c-31.9-17-86.4-18.5-88.9-18.5l-9.5,0.1
		c-5.1,0.2-50.5,2-88.3,18.2c-0.8,0.3-19.1,8-16.6,38c-0.4,0.3-0.7,0.6-1,1c-0.9,1.1-1.3,2.6-1.2,4.1l1.8,16c0.2,1.4,0.9,2.8,2,3.7
		C5.1,83.8,6.5,84.2,8,84l50.5-5.8c3-0.3,5.2-3.1,4.8-6.1l-1.8-16c-0.2-1.4-0.9-2.8-2-3.7c-0.3-0.3-0.7-0.5-1.1-0.7L58,47.4
		c7.9-2.1,26.2-6.2,49.3-6.3h9.4c23,0.1,41.4,4.2,49.3,6.3l-0.4,4.4c-0.4,0.2-0.7,0.4-1.1,0.7c-1.1,0.9-1.9,2.2-2,3.7l-1.8,16
		c-0.2,1.5,0.3,2.9,1.2,4.1c0.9,1.1,2.2,1.9,3.7,2L216,84c0.2,0,0.4,0,0.6,0c2.8,0,5.1-2.1,5.5-4.9l1.8-16
		C224.1,61.7,223.7,60.3,222.8,59.1z M211.8,72.4l-39.6-4.5l0.7-5.9c0.4-0.2,0.8-0.4,1.1-0.7c1.1-0.9,1.9-2.3,2-3.7l1.4-13.7
		c0.3-2.6-1.3-5-3.7-5.8c-1-0.3-24.3-8-57-8.1h-9.4c-32.7,0.1-56,7.7-57,8.1c-2.4,0.8-4,3.2-3.7,5.8l1.4,13.7c0.1,1.5,0.9,2.8,2,3.7
		c0.4,0.3,0.7,0.5,1.1,0.7l0.7,5.9l-39.6,4.5l-0.7-5.8c0.4-0.3,0.8-0.6,1.1-1c0.9-1.2,1.3-2.7,1.1-4.2c-3.6-25.1,8.8-30.9,9.4-31.2
		c36-15.5,79.5-17.3,84.3-17.4l9.2-0.1c0.5,0,54.4,1.5,83.9,17.3c0.1,0.1,0.3,0.2,0.5,0.2c0.5,0.2,13,6.1,9.4,31.2
		c-0.2,1.5,0.2,3,1.1,4.2c0.3,0.4,0.7,0.7,1.1,1L211.8,72.4z"/>
	<path class="st0" d="M112,93.8c-17.6,0-31.8,14.3-31.8,31.8c0,17.6,14.3,31.8,31.8,31.8s31.8-14.3,31.8-31.8
		C143.8,108.1,129.6,93.8,112,93.8z M112,146.5c-11.5,0-20.8-9.3-20.8-20.8s9.3-20.8,20.8-20.8c11.5,0,20.8,9.3,20.8,20.8
		S123.5,146.5,112,146.5z"/>
</g>
</svg>
