<?xml version="1.0" encoding="utf-8"?>
<!-- Generator: Adobe Illustrator 22.0.0, SVG Export Plug-In . SVG Version: 6.00 Build 0)  -->
<svg version="1.1" id="Слой_1" xmlns="http://www.w3.org/2000/svg" xmlns:xlink="http://www.w3.org/1999/xlink" x="0px" y="0px"
	 viewBox="0 0 182.3 171" style="enable-background:new 0 0 182.3 171;" xml:space="preserve">
<style type="text/css">
	.st0{fill:#FFB61B;}
</style>
<g>
	<path class="st0" d="M23.1,0.2C16.3,0.2,10.2,2.6,6,6.9C2,11-0.1,16.6,0,22.6C-0.1,28.5,2,34,6,38.1c4.2,4.3,10.2,6.7,16.9,6.7
		c13.7,0,23.6-9.3,23.6-22.3C46.2,9.4,36.6,0.2,23.1,0.2z M9.5,22.5c-0.1-3.6,1.1-6.7,3.3-9c2.5-2.5,6-3.9,10.3-3.9
		c8.2,0,13.7,5.1,13.9,13c0,7.6-5.7,12.7-14.1,12.7c-4.1,0-7.6-1.4-10.1-3.9c-2.2-2.3-3.4-5.4-3.3-8.7L9.5,22.5L9.5,22.5z"/>
	<path class="st0" d="M40.6,49.1H5.7c-2.6,0-4.8,2.1-4.8,4.8v112.4c0,2.6,2.1,4.8,4.8,4.8h34.9c2.6,0,4.8-2.1,4.8-4.8V53.9
		C45.4,51.3,43.2,49.1,40.6,49.1z M35.9,58.6v102.8H10.4V58.6H35.9z"/>
	<path class="st0" d="M135,46.6c-11.9,0-23.3,4.3-31.7,12l-0.5-5.2c-0.3-2.4-2.3-4.3-4.7-4.3H67.7c-1.3,0-2.6,0.5-3.4,1.5
		c-0.9,0.9-1.4,2.2-1.3,3.5c0.5,9.7,0.9,21.5,0.9,35.6v76.5c0,2.6,2.1,4.8,4.8,4.8h34.9c2.6,0,4.8-2.1,4.8-4.8v-64.8
		c0-3.2,0.5-5.7,0.9-6.8c0.1-0.1,0.1-0.2,0.2-0.4c0.8-2.3,4.2-9.9,13.2-9.9c3.2,0,12.9,0,12.9,19.6v62.3c0,2.6,2.1,4.8,4.8,4.8h34.9
		c2.6,0,4.8-2.1,4.8-4.8V99.6C180,66.4,163.2,46.6,135,46.6z M122.6,74.9c-12,0-19.3,8.3-22.1,16c-1.1,2.6-1.7,6.4-1.7,10.5v60H73.4
		V89.7c0-12.5-0.4-23-0.7-31.1h21.1l1.2,11.1c0.3,2.4,2.3,4.3,4.7,4.3h0.7c1.6,0,3.1-0.8,4-2.2c1.7-2.6,11.1-15.7,30.7-15.7
		c22.5,0,35.5,15.9,35.5,43.5v61.9h-25.4V104C145.1,77.7,129.4,74.9,122.6,74.9z"/>
</g>
</svg>
