<?xml version="1.0" encoding="utf-8"?>
<!-- Generator: Adobe Illustrator 22.0.0, SVG Export Plug-In . SVG Version: 6.00 Build 0)  -->
<svg version="1.1" id="Слой_1" xmlns="http://www.w3.org/2000/svg" xmlns:xlink="http://www.w3.org/1999/xlink" x="0px" y="0px"
	 viewBox="0 0 163 135" style="enable-background:new 0 0 163 135;" xml:space="preserve">
<style type="text/css">
	.st0{fill:#FAB634;}
</style>
<g>
	<path class="st0" d="M111.5,15.4c0,0,0.3,0.2,0.4,0.2c0.5,0.2,1.3,0.6,2.1,1.3c0.8,0.6,1.7,0.9,2.6,0.9c1.2,0,2.4-0.5,3.2-1.5
		c1.4-1.8,1.1-4.3-0.6-5.8c-1.5-1.2-3-1.9-3.7-2.3c-2-1.1-4.5-0.3-5.6,1.7C108.7,11.8,109.5,14.3,111.5,15.4z"/>
	<path class="st0" d="M129.1,17.8c-1.7-1.5-4.3-1.4-5.8,0.3c-1.5,1.7-1.4,4.3,0.3,5.8c17.4,15.8,18.8,30.8,18.8,43.6
		c0,32.7-26.6,59.3-59.3,59.3c-12.4,0-24.4-3.8-34.5-11.1c-1.7-1.2-4-1-5.4,0.5c-7.1,6.5-15.3,4-20.6,1.1c4.2-2.5,7.2-5.5,8.8-9.1
		c2-4.4,1.3-8.2,0.8-9.9c-0.1-0.5-0.2-0.9-0.5-1.3c-5.2-9-7.9-19.2-7.9-29.6c0-32.7,26.6-59.3,59.3-59.3c6.3,0,12.6,1,18.5,2.9
		c2.1,0.7,4.5-0.5,5.2-2.6s-0.5-4.5-2.6-5.2C97.4,1.1,90.4,0,83.2,0C45.9,0,15.7,30.3,15.7,67.5c0,11.6,3,23.1,8.7,33.2
		c0.1,0.5,0.5,2.3-0.5,4.4c-1.4,3-5.2,5.7-10.8,7.6c-1.4,0.5-2.4,1.6-2.7,3s0.2,2.9,1.3,3.9c6.6,6,21.8,14.1,34.9,4.6
		c10.9,7.1,23.5,10.8,36.6,10.8c37.2,0,67.5-30.3,67.5-67.5C150.7,51.9,148,35,129.1,17.8z"/>
	<circle class="st0" cx="49.2" cy="71.4" r="9.5"/>
	<circle class="st0" cx="80.5" cy="71.4" r="9.5"/>
	<ellipse transform="matrix(0.9871 -0.1602 0.1602 0.9871 -9.9859 18.8247)" class="st0" cx="111.8" cy="71.4" rx="9.5" ry="9.5"/>
</g>
</svg>
