<?xml version="1.0" encoding="utf-8"?>
<!-- Generator: Adobe Illustrator 22.0.0, SVG Export Plug-In . SVG Version: 6.00 Build 0)  -->
<svg version="1.1" id="Слой_1" xmlns="http://www.w3.org/2000/svg" xmlns:xlink="http://www.w3.org/1999/xlink" x="0px" y="0px"
	 viewBox="0 0 163 135" style="enable-background:new 0 0 163 135;" xml:space="preserve">
<style type="text/css">
	.st0{fill:#FAB634;}
</style>
<g>
	<path class="st0" d="M109.7,74.8l-6,0c-0.8-2.5-1.9-4.8-3.2-7.1l4.4-4.4c2.8-2.8,2.8-7.2,0-10L99.5,48c-2.8-2.8-7.2-2.7-10,0
		l-4.8,4.8c-2.1-1.1-4.4-2-6.7-2.7v-6.9c0-3.9-3.2-7.1-7.1-7.1h-7.7c-3.9,0-7.1,3.2-7.1,7.1l0,6.9c-2.3,0.7-4.6,1.6-6.7,2.7L44.7,48
		c-2.7-2.7-7.2-2.8-10,0l-5.4,5.4c-2.8,2.8-2.8,7.2,0,10l4.4,4.4c-1.3,2.2-2.4,4.6-3.2,7.1h-6c-3.9,0-7.1,3.2-7.1,7.1v7.7
		c0,3.9,3.2,7.1,7.1,7.1l5.3,0c0.7,2.8,1.7,5.5,3,7.9l-3.6,3.6c-2.8,2.8-2.8,7.2,0,10l5.4,5.4c2.8,2.8,7.2,2.8,10,0l3.1-3.2
		c2.6,1.5,5.5,2.7,8.3,3.5v4.4c0,3.9,3.2,7.1,7.1,7.1H71c3.9,0,7.1-3.2,7.1-7.1l0-4.4c2.9-0.9,5.7-2.1,8.3-3.6l3.2,3.2
		c2.8,2.8,7.2,2.8,10,0l5.4-5.4c2.8-2.8,2.8-7.2,0-10l-3.6-3.5c1.3-2.5,2.3-5.2,3-8h5.3c3.9,0,7.1-3.2,7.1-7.1v-7.7
		C116.7,78,113.5,74.8,109.7,74.8z M104.4,89.6c-3.2,0-6,2.2-6.8,5.3c-0.6,2.3-1.4,4.5-2.5,6.5c-1.4,2.7-0.9,6,1.3,8.2l3.6,3.5
		l-5.4,5.4l-3.2-3.2c-2.2-2.2-5.7-2.7-8.5-1.1c-2.2,1.2-4.5,2.2-6.8,2.9c-3,0.9-5,3.6-5,6.8l0,4.4l-7.7,0v-4.4c0-3.1-2.1-5.9-5-6.8
		c-2.4-0.7-4.7-1.7-6.8-2.9c-1.1-0.6-2.3-0.9-3.5-0.9c-1.8,0-3.6,0.7-5,2.1l-3.2,3.2l-5.4-5.4l3.6-3.6c2.2-2.2,2.7-5.5,1.3-8.2
		c-1.1-2.1-1.9-4.3-2.5-6.5c-0.8-3.1-3.6-5.3-6.8-5.3l-5.3,0l0-7.7h6c3,0,5.7-1.9,6.7-4.8c0.7-2,1.5-4,2.6-5.8
		c1.6-2.8,1.1-6.3-1.1-8.5l-4.4-4.4l5.4-5.4l4.8,4.8c2.2,2.2,5.5,2.7,8.2,1.3c1.7-0.9,3.6-1.6,5.5-2.2c3-0.9,5.1-3.7,5.1-6.8l0-6.9
		l7.7,0v6.9c0,3.1,2.1,5.9,5.1,6.8c1.9,0.6,3.7,1.3,5.5,2.2c2.7,1.4,6,0.9,8.2-1.3l4.8-4.8l5.4,5.4l-4.4,4.4
		c-2.3,2.2-2.7,5.8-1.1,8.5c1.1,1.8,1.9,3.8,2.6,5.8c1,2.9,3.6,4.8,6.7,4.8h6l0,7.6H104.4z"/>
	<path class="st0" d="M67.1,65.8c-11,0-19.9,8.9-19.9,19.9s8.9,19.9,19.9,19.9S87,96.7,87,85.7S78.1,65.8,67.1,65.8z M67.1,98.6
		c-7.1,0-12.8-5.7-12.8-12.8c0-7.1,5.7-12.8,12.8-12.8c7.1,0,12.8,5.7,12.8,12.8C79.9,92.8,74.2,98.6,67.1,98.6z"/>
	<path class="st0" d="M126.3,39.9c2-8.2-3.1-16.6-11.3-18.5c-8.2-2-16.6,3.1-18.5,11.3c-1,4-0.3,8.1,1.8,11.6c2.1,3.5,5.5,6,9.5,6.9
		c1.2,0.3,2.4,0.4,3.6,0.4C118.2,51.7,124.6,46.9,126.3,39.9z M119.4,38.2c-1.1,4.4-5.6,7.2-10,6.1c0,0,0,0,0,0
		c-2.2-0.5-4-1.8-5.1-3.7c-1.2-1.9-1.5-4.1-1-6.3c0.5-2.2,1.8-4,3.7-5.1c1.3-0.8,2.8-1.2,4.3-1.2c0.7,0,1.3,0.1,2,0.2
		C117.7,29.3,120.4,33.8,119.4,38.2z"/>
	<path class="st0" d="M143.3,34.9l-3.5-0.9c-0.2-1.4-0.4-2.9-0.8-4.3l3.2-2c1.4-0.8,2.4-2.2,2.7-3.8c0.4-1.6,0.1-3.2-0.7-4.6
		l-2.9-4.7c-0.8-1.4-2.2-2.4-3.8-2.7c-1.6-0.4-3.2-0.1-4.6,0.7l-3.6,2.2c-1-0.8-2.1-1.6-3.2-2.3l1-4.1c0.4-1.6,0.1-3.2-0.7-4.6
		c-0.8-1.4-2.2-2.4-3.8-2.7l-5.4-1.3c-3.3-0.8-6.6,1.2-7.3,4.5l-1,4.1c-1.3,0.1-2.6,0.3-3.9,0.6l-2.2-3.6c-0.8-1.4-2.2-2.4-3.8-2.7
		c-1.6-0.4-3.2-0.1-4.6,0.7l-4.7,2.9c-2.9,1.7-3.8,5.5-2,8.4l2,3.2c-1,1.1-1.9,2.2-2.7,3.4l-3.5-0.9c-1.6-0.4-3.2-0.1-4.6,0.7
		c-1.4,0.8-2.4,2.2-2.7,3.8l-1.3,5.4c-0.8,3.3,1.2,6.5,4.5,7.3l3,0.7c0.1,1.9,0.3,3.7,0.8,5.6c0.5,1.9,2.4,3.1,4.3,2.6
		c1.9-0.5,3.1-2.4,2.6-4.3c-0.4-1.6-0.6-3.2-0.6-4.8c0-2.8-1.9-5.2-4.6-5.8L82,31l0.8-3.5l3.3,0.8c2.5,0.6,5.2-0.5,6.6-2.7
		c0.8-1.2,1.7-2.4,2.7-3.5c1.9-2,2.2-5,0.8-7.4l-1.8-3l3-1.9l2,3.3c1.4,2.3,4,3.4,6.6,2.7c1.3-0.3,2.7-0.5,4-0.6
		c2.7-0.1,5-2,5.6-4.6l0.9-3.9l3.5,0.8l-0.9,3.9c-0.6,2.6,0.6,5.4,2.9,6.7c1.2,0.7,2.3,1.5,3.3,2.4c2,1.7,4.9,2,7.2,0.6l3.3-2l1.9,3
		l-3,1.8c-2.3,1.4-3.4,4.3-2.7,6.9c0.4,1.4,0.7,2.9,0.8,4.3c0.2,2.6,2.1,4.8,4.6,5.4l3.3,0.8l-0.8,3.5l-2.8-0.7
		c-2.7-0.7-5.5,0.6-6.8,3.1c-0.8,1.4-1.7,2.8-2.7,4c-1.7,2-2,4.9-0.6,7.1l1.4,2.3l-3,1.9l-1.2-1.9c-1-1.7-3.2-2.2-4.9-1.2
		c-1.7,1-2.2,3.2-1.2,4.9l1.7,2.8c1.1,1.9,3.1,2.9,5.2,2.9c1.1,0,2.2-0.3,3.2-0.9l4.7-2.9c2.9-1.7,3.8-5.5,2-8.4l-1.5-2.5
		c1-1.3,2-2.6,2.8-4l3,0.7c1.6,0.4,3.2,0.1,4.6-0.7c1.4-0.8,2.4-2.2,2.7-3.8l1.3-5.4C148.6,39,146.6,35.7,143.3,34.9z"/>
	<path class="st0" d="M111.8,58.9c-2.7,0.4-3.4,2.6-3.2,4c0.2,1.3,1.3,3.1,3.6,3.1c0.2,0,0.3,0,0.5,0c2.7-0.3,3.5-2.4,3.4-3.8
		c-0.1-1.4-1.3-3.4-4-3.3C112,58.9,111.9,58.9,111.8,58.9z"/>
</g>
</svg>
