<?xml version="1.0" encoding="utf-8"?>
<!-- Generator: Adobe Illustrator 22.0.0, SVG Export Plug-In . SVG Version: 6.00 Build 0)  -->
<svg version="1.1" id="Слой_1" xmlns="http://www.w3.org/2000/svg" xmlns:xlink="http://www.w3.org/1999/xlink" x="0px" y="0px"
	 viewBox="0 0 163 135" style="enable-background:new 0 0 163 135;" xml:space="preserve">
<style type="text/css">
	.st0{fill:#FAB634;}
</style>
<g>
	<path class="st0" d="M91,43c-2.4,0-4.4,2-4.4,4.4c0,2.4,2,4.4,4.4,4.4h2.6c2.4,0,4.4-2,4.4-4.4c0-2.4-2-4.4-4.4-4.4H91z"/>
	<path class="st0" d="M151,63.5V58c0-8.3-6.7-15-15-15h-30.2c-2.4,0-4.4,2-4.4,4.4c0,2.4,2,4.4,4.4,4.4h30.2c3.4,0,6.1,2.8,6.1,6.1
		v5.1h-36.3c-2.4,0-4.4,2-4.4,4.4c0,2.4,2,4.4,4.4,4.4h40.7h1c3.4,0,6.1,2.8,6.1,6.1s-2.8,6.1-6.1,6.1H147h-7.2h-36.4
		c-2.4,0-4.4,2-4.4,4.4c0,2.4,2,4.4,4.4,4.4h32v2.6c0,5.3-4.3,9.7-9.7,9.7h-1.8l-27.4-0.1c0,0,0,0,0,0c-2.4,0-4.4,2-4.4,4.4
		c0,2.4,2,4.4,4.4,4.4l23,0.1v3.2c0,2-1.7,3.7-3.7,3.7H54c0-0.4,0.1-0.7,0.1-1.1V42.8c1.2-0.8,1.5-1.4,1.8-1.8l17.4-29
		c1.1-1.7,2.8-2.9,4.8-3.2c2-0.4,4,0.1,5.7,1.3c3.1,2.3,3.8,7,1.5,10.5c-0.1,0.2-0.2,0.4-0.3,0.5L73.5,45.6c-1,2.2-0.1,4.8,2.1,5.9
		c2.2,1,4.8,0.1,5.9-2.1l11.3-24.1C97.5,17.7,95.8,8,89,3c-3.6-2.6-8.1-3.7-12.5-2.8c-4.3,0.8-8.2,3.4-10.7,7.2L53.5,27.8
		c-1.6-5.4-6.7-9.4-12.7-9.4H13.7c-7.3,0-13.2,5.9-13.2,13.2v88.2c0,7.3,5.9,13.2,13.2,13.2h27.2c3.3,0,6.4-1.2,8.7-3.3h66.2
		c6.9,0,12.5-5.6,12.5-12.5V114c9-1.3,15.9-9,15.9-18.3v-2.6h2.8h0.6c8.3,0,15-6.7,15-15C162.6,71,157.6,65.1,151,63.5z M9.3,119.9
		V31.7c0-2.4,2-4.4,4.4-4.4h27.2c2.4,0,4.4,2,4.4,4.4v88.2c0,2.4-2,4.4-4.4,4.4H13.7C11.3,124.3,9.3,122.3,9.3,119.9z"/>
	<path class="st0" d="M27.3,99c-5.8,0-10.6,4.7-10.6,10.6c0,5.8,4.7,10.6,10.6,10.6c5.8,0,10.6-4.7,10.6-10.6
		C37.8,103.8,33.1,99,27.3,99z"/>
</g>
</svg>
