<?xml version="1.0" encoding="utf-8"?>
<!-- Generator: Adobe Illustrator 22.0.0, SVG Export Plug-In . SVG Version: 6.00 Build 0)  -->
<svg version="1.1" id="Слой_1" xmlns="http://www.w3.org/2000/svg" xmlns:xlink="http://www.w3.org/1999/xlink" x="0px" y="0px"
	 viewBox="0 0 163 135" style="enable-background:new 0 0 163 135;" xml:space="preserve">
<style type="text/css">
	.st0{fill:#FAB634;}
</style>
<g>
	<path class="st0" d="M130.6,45.3c-2,0-3.6,1.6-3.6,3.6v2.8c0,2,1.6,3.6,3.6,3.6s3.6-1.6,3.6-3.6v-2.8
		C134.3,46.9,132.6,45.3,130.6,45.3z"/>
	<path class="st0" d="M121,21.7h-17.1v-8.5C103.9,6,98,0,90.6,0H72.4C65,0,59.1,6,59.1,13.3v8.5H42c-7.3,0-13.3,5.9-13.3,13.3v86.7
		c0,7.3,6,13.3,13.3,13.3h79c7.3,0,13.3-6,13.3-13.3v-60c0-2-1.6-3.6-3.6-3.6s-3.6,1.6-3.6,3.6v60c0,3.3-2.7,6-6,6H42
		c-3.3,0-6-2.7-6-6V35c0-3.3,2.7-6,6-6h20.7h37.6H121c3.3,0,6,2.7,6,6v3.9c0,2,1.6,3.6,3.6,3.6s3.6-1.6,3.6-3.6V35
		C134.3,27.7,128.3,21.7,121,21.7z M66.3,13.3c0-3.3,2.7-6,6-6h18.3c3.3,0,6,2.7,6,6v8.5H66.3V13.3z"/>
	<path class="st0" d="M111.8,51.4H51.2c-2,0-3.6,1.6-3.6,3.6c0,2,1.6,3.6,3.6,3.6h60.5c2,0,3.6-1.6,3.6-3.6
		C115.4,53.1,113.8,51.4,111.8,51.4z"/>
	<path class="st0" d="M111.8,74.7H51.2c-2,0-3.6,1.6-3.6,3.6c0,2,1.6,3.6,3.6,3.6h60.5c2,0,3.6-1.6,3.6-3.6
		C115.4,76.4,113.8,74.7,111.8,74.7z"/>
	<path class="st0" d="M111.8,98.1H51.2c-2,0-3.6,1.6-3.6,3.6c0,2,1.6,3.6,3.6,3.6h60.5c2,0,3.6-1.6,3.6-3.6
		C115.4,99.7,113.8,98.1,111.8,98.1z"/>
</g>
</svg>
