<?xml version="1.0" encoding="utf-8"?>
<!-- Generator: Adobe Illustrator 22.0.0, SVG Export Plug-In . SVG Version: 6.00 Build 0)  -->
<svg version="1.1" id="Слой_1" xmlns="http://www.w3.org/2000/svg" xmlns:xlink="http://www.w3.org/1999/xlink" x="0px" y="0px"
	 viewBox="0 0 839 112" style="enable-background:new 0 0 839 112;" xml:space="preserve">
<style type="text/css">
	.st0{fill:#FFFFFF;}
	.st1{fill:url(#SVGID_1_);}
	.st2{fill:url(#SVGID_2_);}
	.st3{fill:#333333;}
</style>
<g>
	<g>
		<path class="st0" d="M94.9,77.6l-9.2-23.2L78,31.2l-7.7,23.5l-9,23H49.5L22.4,3.9H38l17.4,53.2L73.3,3.9h9.1l18.4,53.2l16.9-53.2
			h15.6l-26.6,73.8H94.9z"/>
		<path class="st0" d="M158.6,67.3c4.7,0,11-1.8,13.9-4.8l8.2,8.1c-5.5,5.7-14.4,8.4-22.3,8.4c-17.9,0-28.6-11.1-28.6-27.7
			c0-15.8,10.8-27.2,27.6-27.2c16,0,26.5,9.1,26.5,27.3c0,1.5,0,3.2-0.2,4.8h-40.6C143.9,62.7,149.5,67.3,158.6,67.3z M157.9,35.5
			c-7,0-12.6,3.4-14.5,10.1h28C170.5,38.9,165.2,35.5,157.9,35.5z"/>
		<path class="st0" d="M214.7,34.9c-6.1,0-9.5,1.9-9.5,5.2c0,3.4,3.1,5.3,9.7,5.7c9.8,0.6,22.2,2.8,22.2,16.7
			c0,9.2-7.5,17.1-22.3,17.1c-8.2,0-16.4-1.4-24-9.3l6.3-9.2c3.8,4.2,12.4,7.3,18.2,7.3c4.7,0,9.1-2.5,9.1-6.2c0-3.6-3-5.1-10.3-5.5
			c-9.8-0.7-21.5-4.3-21.5-16.1c0-12,12.4-16.2,21.9-16.2c8.1,0,14.2,1.6,20.2,6.9l-7.2,8.4C223.8,36,219.6,34.9,214.7,34.9z"/>
		<path class="st0" d="M263.5,25.8h14.3v11.1h-14.4v22.4c0,5,2.7,7.4,6.7,7.4c2,0,4.3-0.6,6.2-1.6l3.6,11c-4,1.6-7.3,2.2-11.7,2.2
			c-10.6,0-17.6-6.4-17.6-19V36.9h-9.7V25.8h9.7V12.4l12.9-1.4V25.8z"/>
		<path class="st0" d="M362.2,25.7v52h-12.1l-0.6-7.6c-3,6.2-11.3,9.2-17.1,9.2c-15.3,0-26.6-9.5-26.6-27.6
			c0-17.8,11.8-27.2,26.9-27.2c7,0,13.8,3.2,16.8,8.4l0.4-7.2H362.2z M318.7,51.6c0,9.9,6.9,15.8,15.4,15.8
			c10.1,0,15.2-7.9,15.2-15.8c0-7.8-5.1-15.7-15.2-15.7C325.6,35.9,318.7,41.7,318.7,51.6z"/>
		<path class="st0" d="M423.4,27.6l-5.8,7.4c4,4.5,5.5,9.7,5.5,15.4c0,6.4-2.4,15.5-11,19.4c8.6,4.3,10.8,10.5,10.8,17.2
			c0,14.3-11,23.2-26,23.2c-15.1,0-26.4-9.2-26.4-23.2h12.8c0,6.7,6.2,11.2,13.6,11.2c7.4,0,13.2-4,13.2-11.2s-6.7-10.4-13.2-10.4
			c-16.2,0-26.4-9.9-26.4-26.1c0-16.2,11.8-26.4,26.4-26.4c4.1,0,8.3,0.5,11.9,3l5.2-6.5L423.4,27.6z M383.2,50.3
			c0,9.1,6.1,14.4,13.6,14.4c7.4,0,13.5-5.5,13.5-14.4c0-9-6.1-14.7-13.5-14.7C389.3,35.7,383.2,41.3,383.2,50.3z"/>
		<path class="st0" d="M444.1,31.7c4-6.4,9.4-7.4,14.7-7.4c5.4,0,10.5,2.1,13.4,5l-5.8,11.2c-2.6-2.2-5.1-3.4-9.3-3.4
			c-6.7,0-13,3.6-13,13.2v27.4h-12.9v-52h11.9L444.1,31.7z"/>
		<path class="st0" d="M528.7,51.7c0,15-10.2,27.1-27.1,27.1c-16.9,0-27-12.1-27-27.1c0-14.9,10.3-27.1,26.9-27.1
			S528.7,36.9,528.7,51.7z M487.5,51.7c0,7.9,4.7,15.3,14.1,15.3c9.4,0,14.1-7.4,14.1-15.3c0-7.8-5.5-15.4-14.1-15.4
			C492.3,36.3,487.5,43.9,487.5,51.7z"/>
		<path class="st0" d="M577,25.8h14.3v11.1h-14.4v22.4c0,5,2.7,7.4,6.7,7.4c2,0,4.3-0.6,6.2-1.6l3.6,11c-4,1.6-7.3,2.2-11.7,2.2
			c-10.6,0-17.6-6.4-17.6-19V36.9h-9.7V25.8h9.7V12.4L577,11V25.8z"/>
		<path class="st0" d="M613.7,31.7c4-6.4,9.4-7.4,14.7-7.4c5.4,0,10.5,2.1,13.4,5L636,40.4c-2.6-2.2-5.1-3.4-9.3-3.4
			c-6.7,0-13,3.6-13,13.2v27.4h-12.9v-52h11.9L613.7,31.7z"/>
		<path class="st0" d="M700.2,25.7v52h-12.1l-0.6-7.6c-3,6.2-11.3,9.2-17.1,9.2c-15.3,0-26.6-9.5-26.6-27.6
			c0-17.8,11.8-27.2,26.9-27.2c7,0,13.8,3.2,16.8,8.4l0.4-7.2H700.2z M656.6,51.6c0,9.9,6.9,15.8,15.4,15.8
			c10.1,0,15.2-7.9,15.2-15.8c0-7.8-5.1-15.7-15.2-15.7C663.5,35.9,656.6,41.7,656.6,51.6z"/>
		<path class="st0" d="M749.3,50.5c0-7.9-4.3-13.9-12.5-13.9c-7.9,0-13.3,6.6-13.3,14.5v26.6h-12.8V25.6h11.5l0.8,7.1
			c5.3-5.2,10.5-7.8,17.1-7.8c12.2,0,22,9.2,22,25.5v27.3h-12.9V50.5z"/>
		<path class="st0" d="M794.3,34.9c-6.1,0-9.5,1.9-9.5,5.2c0,3.4,3.1,5.3,9.7,5.7c9.8,0.6,22.2,2.8,22.2,16.7
			c0,9.2-7.5,17.1-22.3,17.1c-8.2,0-16.4-1.4-24-9.3l6.3-9.2c3.8,4.2,12.4,7.3,18.2,7.3c4.7,0,9.1-2.5,9.1-6.2c0-3.6-3-5.1-10.3-5.5
			c-9.8-0.7-21.5-4.3-21.5-16.1c0-12,12.4-16.2,21.9-16.2c8.1,0,14.2,1.6,20.2,6.9l-7.2,8.4C803.5,36,799.3,34.9,794.3,34.9z"/>
	</g>
	<linearGradient id="SVGID_1_" gradientUnits="userSpaceOnUse" x1="379.9375" y1="86.895" x2="411.1777" y2="86.895">
		<stop  offset="3.571429e-02" style="stop-color:#95C11F"/>
		<stop  offset="0.3036" style="stop-color:#81B734"/>
		<stop  offset="1" style="stop-color:#4D9F4E"/>
	</linearGradient>
	<path class="st1" d="M410.6,92.8c0.4-1.4,0.5-2.8,0.5-4.3c0-5.8-5-11.1-11.8-11.8c-1.1-0.1-2.8-0.3-6-0.3c-4.5-0.3-11.2-3-13.5-4.8
		c0,0,0.9,27.1,15.2,30.3c0.3,0.1,0.6,0.1,0.9,0.2c0.1,0,0.1,0,0.2,0l0,0c0.9,0.1,1.9,0.2,2.9,0.1c1.9-0.1,3.7-0.6,5.2-1.5
		c0,0,0,0,0,0c0.1,0,0.1-0.1,0.2-0.1c0.2-0.1,0.5-0.3,0.7-0.4c0.1-0.1,0.2-0.1,0.3-0.2c0.2-0.1,0.4-0.3,0.6-0.4
		c0.1-0.1,0.3-0.2,0.4-0.3c0.1-0.1,0.2-0.2,0.3-0.3c0,0,0,0,0,0c0.8-0.7,2.9-3.6,3.2-4.3C410.5,93.6,410.6,92.8,410.6,92.8
		L410.6,92.8z"/>
	<g>
		<linearGradient id="SVGID_2_" gradientUnits="userSpaceOnUse" x1="379.9375" y1="86.895" x2="411.1777" y2="86.895">
			<stop  offset="3.571429e-02" style="stop-color:#95C11F"/>
			<stop  offset="0.3036" style="stop-color:#81B734"/>
			<stop  offset="1" style="stop-color:#4D9F4E"/>
		</linearGradient>
		<path class="st2" d="M398.7,88.1c-4.2-3.8-8-4-8-4c7.2-0.3,12.3,5,12.3,5l0,0c1.7,1.5,4.1,4.2,6.3,7c0.3-0.4,0.5-0.9,0.7-1.4
			c0.5-1.2,0.7-2,0.7-2l0,0c0.4-1.4,0.5-2.8,0.5-4.3c0-5.8-5-11.1-11.8-11.8c-1.1-0.1-2.8-0.3-6-0.3c-4.5-0.3-11.2-3-13.5-4.8
			c0,0,0.9,27.1,15.2,30.3c0.3,0.1,0.6,0.1,0.9,0.2c0.1,0,0.1,0,0.2,0l0,0c0.9,0.1,1.9,0.2,2.9,0.1c1.9-0.1,3.7-0.6,5.2-1.5
			c0,0,0,0,0,0c0.1,0,0.1-0.1,0.2-0.1c0.2-0.1,0.5-0.3,0.7-0.4c0.1-0.1,0.2-0.1,0.3-0.2c0.2-0.1,0.4-0.3,0.6-0.4
			c0.1-0.1,0.3-0.2,0.4-0.3c0.1-0.1,0.2-0.2,0.3-0.3C403.6,93.1,399.8,89.2,398.7,88.1z"/>
		<path class="st3" d="M406.7,99c0.8-0.7,2.3-2.7,2.5-2.9c-2.2-2.7-4.6-5.5-6.3-7l0,0c0,0-5.1-5.3-12.3-5c0,0,3.8,0.2,8,4
			C399.8,89.2,403.6,93.1,406.7,99C406.7,99.1,406.7,99,406.7,99C406.7,99,406.7,99,406.7,99z"/>
		<path class="st0" d="M406.7,99c0.8-0.7,2.3-2.7,2.5-2.9c-2.2-2.7-4.6-5.5-6.3-7l0,0c0,0-5.1-5.3-12.3-5c0,0,3.8,0.2,8,4
			C399.8,89.2,403.6,93.1,406.7,99C406.7,99.1,406.7,99,406.7,99C406.7,99,406.7,99,406.7,99z"/>
	</g>
</g>
</svg>
