<?xml version="1.0" encoding="utf-8"?>
<!-- Generator: Adobe Illustrator 22.0.0, SVG Export Plug-In . SVG Version: 6.00 Build 0)  -->
<svg version="1.1" id="Слой_1" xmlns="http://www.w3.org/2000/svg" xmlns:xlink="http://www.w3.org/1999/xlink" x="0px" y="0px"
	 viewBox="0 0 114 169" style="enable-background:new 0 0 114 169;" xml:space="preserve">
<style type="text/css">
	.st0{fill:#F9B534;}
</style>
<path class="st0" d="M99.8,77.8c-0.9-1.4-1.9-2.8-3.2-4.1C72.6,47.4,57.8,1,57.7,0.6c-0.2-0.8-1.5-0.8-1.8,0C55.8,1,41,47.4,17,73.7
	c-1.2,1.4-2.3,2.7-3.1,4C5.6,87.7,1,100.4,1,113.4c0,30.8,25,55.8,55.8,55.8s55.8-25,55.8-55.8C112.6,100.4,108,87.7,99.8,77.8z
	 M90.8,84.3l0.4,0.5c6.7,8,10.3,18.2,10.3,28.6c0,24.7-20.1,44.7-44.7,44.7c-24.7,0-44.7-20.1-44.7-44.7c0-10.4,3.7-20.6,10.3-28.6
	l0.5-0.6l0.3-0.5c0.5-0.8,1.2-1.7,1.9-2.5c14-15.3,24.8-36.3,31.6-52c6.8,15.6,17.6,36.6,31.6,52c0.8,0.9,1.4,1.7,1.9,2.5L90.8,84.3
	z"/>
</svg>
