<?xml version="1.0" encoding="utf-8"?>
<!-- Generator: Adobe Illustrator 22.0.0, SVG Export Plug-In . SVG Version: 6.00 Build 0)  -->
<svg version="1.1" id="Слой_1" xmlns="http://www.w3.org/2000/svg" xmlns:xlink="http://www.w3.org/1999/xlink" x="0px" y="0px"
	 viewBox="0 0 136.7 169" style="enable-background:new 0 0 136.7 169;" xml:space="preserve">
<style type="text/css">
	.st0{fill:#F9B534;}
</style>
<path class="st0" d="M136.3,80.3c0.1-0.1,0.1-0.2,0.1-0.4l-0.5,0.4c-43.4,1-58.3,10.6-62.3,20.2v-15c13.2-1.7,41.1-13-4.4-84.7
	l0-0.8c-0.1,0.1-0.2,0.3-0.3,0.4c-0.1-0.1-0.2-0.3-0.2-0.4l0,0.8c-47.6,71.6-18.7,83-5.7,84.7v15.1c-3.9-9.6-18.8-19.2-62.3-20.2
	L0.2,80c0.1,0.1,0.1,0.2,0.1,0.4c-0.1,0-0.3,0-0.4,0l0.5,0.4c16.9,40.3,31.4,50.6,41.8,50.6c9.9,0,16.1-9.4,17-10.8
	c0.5-0.7,2.5-3.4,3.8-7.2v55.5h10.6v-55.5c1.3,3.8,3.3,6.5,3.8,7.2c0.9,1.4,7,10.8,17,10.8c10.4,0,24.9-10.3,41.8-50.6l0.5-0.4
	C136.5,80.3,136.4,80.3,136.3,80.3z M50.8,114.1c-0.2,0.3-0.4,0.5-0.6,0.8c-0.9,1.5-4.3,5.7-7.9,5.7c-1.9,0-11.2-1.6-24.9-28.7
	c29.5,2.8,34.9,10.6,35.7,12.3C55,108.2,50.8,114,50.8,114.1z M54.5,69.4c-1.7-3.2-5.1-15.5,14.3-48.7
	c18.6,33.4,15.1,45.7,13.3,48.9c-2.8,5.1-10.4,5.5-12.6,5.5c-0.4,0-0.6,0-0.8,0c-0.2,0-0.4,0-0.6,0c-0.1,0-0.3,0-0.4,0
	c-0.1,0-0.2,0-0.4,0C65.7,75.1,57.4,74.8,54.5,69.4z M94.4,120.6c-3.6,0-7-4.3-7.9-5.7c-0.2-0.3-0.4-0.6-0.6-0.8
	c0-0.1-4.2-5.8-2.3-9.8c0.8-1.7,6.2-9.5,35.7-12.3C105.6,119.1,96.3,120.6,94.4,120.6z"/>
</svg>
