<?xml version="1.0" encoding="utf-8"?>
<!-- Generator: Adobe Illustrator 22.0.0, SVG Export Plug-In . SVG Version: 6.00 Build 0)  -->
<svg version="1.1" id="Слой_1" xmlns="http://www.w3.org/2000/svg" xmlns:xlink="http://www.w3.org/1999/xlink" x="0px" y="0px"
	 viewBox="0 0 118.3 169" style="enable-background:new 0 0 118.3 169;" xml:space="preserve">
<style type="text/css">
	.st0{fill:#F9B534;}
</style>
<path class="st0" d="M58.8,0.1C35.7,2.5,0,43.2,0,92.4c0,49.7,26.1,75.3,58.8,76.6c32.7-1.3,58.8-26.9,58.8-76.6
	C117.5,43.2,81.8,2.5,58.8,0.1z M58.8,157.8c-29.4-1.4-47.5-26.2-47.5-65.4c0-20.3,7.2-41.6,19.7-58.6c9.9-13.4,20.9-21,27.9-22.4
	c6.9,1.4,18,9,27.9,22.4c12.5,17,19.7,38.3,19.7,58.6C106.3,131.6,88.1,156.4,58.8,157.8z"/>
</svg>
