<?xml version="1.0" encoding="utf-8"?>
<!-- Generator: Adobe Illustrator 22.0.0, SVG Export Plug-In . SVG Version: 6.00 Build 0)  -->
<svg version="1.1" id="Слой_1" xmlns="http://www.w3.org/2000/svg" xmlns:xlink="http://www.w3.org/1999/xlink" x="0px" y="0px"
	 viewBox="0 0 114 169" style="enable-background:new 0 0 114 169;" xml:space="preserve">
<style type="text/css">
	.st0{fill:#F9B534;}
</style>
<path class="st0" d="M60.7,131.4V114c41.7-0.9,52.8-66.7,52.8-66.7s-39.9,14.4-52.8,41v-5c28.4-28-4-83.4-4-83.4s-32.3,55.4-4,83.4
	v5C39.9,61.7,0,47.3,0,47.3s11.1,65.7,52.8,66.7v17.5C39.9,104.8,0,90.4,0,90.4s11.1,65.7,52.8,66.7V169h7.9v-11.9
	c41.7-0.9,52.8-66.7,52.8-66.7S73.6,104.8,60.7,131.4z M87.8,71.5c4-3,8.1-5.6,11.9-7.8c-1.5,4.2-3.3,8.7-5.5,13.1
	c-5.7,11.4-15.1,24.6-29,28.2C66.4,90.7,77.6,79.2,87.8,71.5z M19.2,76.8c-2.2-4.4-4-8.9-5.5-13.1c3.8,2.2,7.9,4.8,11.9,7.8
	c10.2,7.7,21.5,19.2,22.6,33.6C34.3,101.4,24.9,88.3,19.2,76.8z M19.2,119.9c-2.2-4.4-4-8.9-5.5-13.1c3.8,2.2,7.9,4.8,11.9,7.8
	c10.2,7.7,21.5,19.2,22.6,33.6C34.3,144.5,24.9,131.3,19.2,119.9z M52.6,35c1.1-4.8,2.6-9.4,4.2-13.6c1.5,4.1,3,8.8,4.2,13.6
	c2.9,12.4,4.2,28.5-4.2,40.3C48.4,63.5,49.6,47.4,52.6,35z M87.8,114.6c4-3,8.1-5.6,11.9-7.8c-1.5,4.2-3.3,8.7-5.5,13.1
	c-5.7,11.4-15.1,24.6-29,28.2C66.4,133.8,77.6,122.2,87.8,114.6z"/>
</svg>
